<?xml version="1.0" standalone="no"?>
<!DOCTYPE svg PUBLIC "-//W3C//DTD SVG 20010904//EN"
 "http://www.w3.org/TR/2001/REC-SVG-20010904/DTD/svg10.dtd">
<svg version="1.0" xmlns="http://www.w3.org/2000/svg"
 width="512.000000pt" height="512.000000pt" viewBox="0 0 512.000000 512.000000"
 preserveAspectRatio="xMidYMid meet">

<g transform="translate(0.000000,512.000000) scale(0.100000,-0.100000)"
fill="#000000" stroke="none">
<path d="M2043 3976 c-63 -30 -166 -128 -333 -315 l-125 -141 -67 0 -68 0 0
80 0 80 -170 0 -170 0 0 -79 0 -78 -113 -5 c-100 -4 -121 -8 -172 -33 -71 -34
-130 -92 -159 -154 l-21 -46 0 -955 0 -955 22 -47 c30 -66 105 -143 172 -175
l56 -28 1680 0 1680 0 54 30 c61 34 110 89 143 161 l23 49 0 965 c0 960 0 965
-21 1011 -31 66 -78 114 -142 146 l-57 28 -350 5 -350 5 -136 150 c-163 181
-261 274 -314 300 -38 19 -66 20 -525 23 l-485 2 -52 -24z m1013 -161 c19 -14
110 -112 202 -218 93 -106 179 -201 191 -212 22 -19 41 -20 401 -25 363 -5
380 -6 407 -26 15 -11 36 -36 45 -55 17 -32 18 -98 18 -949 l0 -916 -22 -44
c-13 -25 -38 -55 -57 -68 l-34 -22 -1642 2 -1641 3 -36 24 c-19 13 -46 40 -59
59 l-24 36 -3 921 -2 922 22 34 c13 19 43 44 68 57 43 22 51 22 403 22 224 0
365 4 377 10 11 6 62 62 115 125 52 63 146 166 208 230 l113 115 458 0 459 0
33 -25z"/>
<path d="M2344 3196 c-245 -64 -452 -238 -560 -471 -100 -218 -100 -493 1
-712 85 -183 235 -334 420 -419 217 -100 493 -100 710 0 238 110 414 324 475
578 27 113 27 283 0 396 -59 247 -225 454 -459 572 -162 81 -400 104 -587 56z
m381 -151 c86 -22 211 -85 277 -139 106 -86 197 -231 233 -371 22 -88 20 -253
-6 -345 -67 -243 -260 -432 -504 -495 -78 -20 -252 -20 -330 0 -248 64 -446
262 -510 510 -20 78 -20 252 0 330 36 140 127 285 233 371 64 53 189 116 272
138 75 20 259 20 335 1z"/>
<path d="M2453 2671 c-186 -67 -265 -276 -172 -452 36 -67 68 -97 143 -137 44
-23 63 -27 136 -27 73 0 92 4 136 27 76 40 107 70 145 140 31 58 34 70 34 148
0 78 -3 90 -35 148 -18 35 -52 79 -76 98 -85 70 -208 92 -311 55z"/>
<path d="M3520 3115 l0 -85 85 0 85 0 0 85 0 85 -85 0 -85 0 0 -85z"/>
</g>
</svg>
